<svg xmlns="http://www.w3.org/2000/svg" viewBox="0 0 425.2 82.18"><defs><style>.cls-1{fill:#aaa;}</style></defs><title>Noel_Jessop_Logo_Grey</title><path class="cls-1" d="M478.53,321l3.83,9.8H474.7Zm-1.26-3.82L468.38,339h3.22l2.24-5.69h9.35l2.25,5.69h3.41L480,317.16h-2.69Z" transform="translate(-208.42 -257.2)"/><path class="cls-1" d="M499.17,326.8H499a4,4,0,0,0-1.64-.32,3.15,3.15,0,0,0-2.47,1.26,6.65,6.65,0,0,0-.92,3.79V339h-3V324h3l0,2.3h0.1a3.92,3.92,0,0,1,3.7-2.59,4.27,4.27,0,0,1,1.58.25Z" transform="translate(-208.42 -257.2)"/><path class="cls-1" d="M513.67,337.1c-0.44.44-2,2.28-6,2.28a7.82,7.82,0,0,1,.09-15.64c4,0,5.66,2,5.82,2.15l-1.07,2.21a5.92,5.92,0,0,0-4.49-1.83,4.87,4.87,0,0,0-4.87,5.18c0,3.16,2,5.34,4.9,5.34a6.24,6.24,0,0,0,4.55-1.9Z" transform="translate(-208.42 -257.2)"/><path class="cls-1" d="M529.32,339h-3v-8.5c0-2.15-.34-4.29-3.1-4.29s-3.92,2.37-3.92,5.37V339h-3V317.22h3v9.17h0.06a5.12,5.12,0,0,1,4.61-2.65c4.33,0,5.37,2.78,5.37,6.35V339Z" transform="translate(-208.42 -257.2)"/><path class="cls-1" d="M536.59,339h-3V324h3v15ZM535.07,321a1.87,1.87,0,1,1,2-1.87,1.86,1.86,0,0,1-2,1.87" transform="translate(-208.42 -257.2)"/><path class="cls-1" d="M548.18,338.87a7.59,7.59,0,0,1-2.75.51,3.52,3.52,0,0,1-3.19-1.55c-0.63-.95-0.76-2.11-0.76-4.49v-6.86h-2.21V324h2.21v-4.49h3V324h3.61v2.43h-3.61v6.79a5.89,5.89,0,0,0,.38,2.75,1.57,1.57,0,0,0,1.55.76,3.68,3.68,0,0,0,1.55-.35Z" transform="translate(-208.42 -257.2)"/><path class="cls-1" d="M561.24,330.21a4.34,4.34,0,0,0-4.33-4.3,4.42,4.42,0,0,0-4.42,4.3h8.75Zm2.78,2H552.45c0.16,3,2.05,4.77,4.84,4.77a8.3,8.3,0,0,0,5-1.74l1.27,1.74c-0.19.16-2.12,2.37-6.61,2.37s-7.52-3.1-7.52-7.87a7.45,7.45,0,0,1,7.62-7.78,6.85,6.85,0,0,1,7.11,7.17,13,13,0,0,1-.1,1.33" transform="translate(-208.42 -257.2)"/><path class="cls-1" d="M579.7,337.1c-0.44.44-2,2.28-6,2.28a7.82,7.82,0,0,1,.09-15.64c4,0,5.66,2,5.82,2.15l-1.07,2.21a5.92,5.92,0,0,0-4.49-1.83,4.87,4.87,0,0,0-4.87,5.18c0,3.16,2,5.34,4.9,5.34a6.24,6.24,0,0,0,4.55-1.9Z" transform="translate(-208.42 -257.2)"/><path class="cls-1" d="M589.43,338.87a7.59,7.59,0,0,1-2.75.51,3.53,3.53,0,0,1-3.19-1.55c-0.63-.95-0.76-2.11-0.76-4.49v-6.86h-2.21V324h2.21v-4.49h3V324h3.6v2.43h-3.6v6.79a5.89,5.89,0,0,0,.38,2.75,1.57,1.57,0,0,0,1.55.76,3.68,3.68,0,0,0,1.55-.35Z" transform="translate(-208.42 -257.2)"/><path class="cls-1" d="M604.73,339h-2.94l0-2.15a5.24,5.24,0,0,1-4.65,2.5,4.86,4.86,0,0,1-4.17-1.74,7.61,7.61,0,0,1-1.11-4.65v-9h3v8.88c0,2.05.44,4,3.13,4s3.73-2.27,3.73-4.8V324h3v15Z" transform="translate(-208.42 -257.2)"/><path class="cls-1" d="M617.09,326.8H617a4,4,0,0,0-1.64-.32,3.15,3.15,0,0,0-2.47,1.26,6.65,6.65,0,0,0-.92,3.79V339h-3V324h3l0,2.3H612a3.92,3.92,0,0,1,3.7-2.59,4.27,4.27,0,0,1,1.58.25Z" transform="translate(-208.42 -257.2)"/><path class="cls-1" d="M629.85,330.21a4.34,4.34,0,0,0-4.33-4.3,4.42,4.42,0,0,0-4.42,4.3h8.75Zm2.78,2H621.07c0.16,3,2.05,4.77,4.84,4.77a8.32,8.32,0,0,0,5-1.74l1.26,1.74c-0.19.16-2.12,2.37-6.61,2.37s-7.52-3.1-7.52-7.87a7.45,7.45,0,0,1,7.62-7.78,6.85,6.85,0,0,1,7.11,7.17,13,13,0,0,1-.1,1.33" transform="translate(-208.42 -257.2)"/><path class="cls-1" d="M252.78,307H241l-21.54-33.26s0.21,5.9.21,11.09V307H208.42V258h12.29l21,33s-0.21-5.55-.21-10.73V258h11.23v49Z" transform="translate(-208.42 -257.2)"/><path class="cls-1" d="M285.25,267c-8.17,0-14.36,5.9-14.36,15.28s6.18,15.35,14.36,15.35,14.36-6,14.36-15.35S293.42,267,285.25,267m0,40.87c-14.57,0-26-9.45-26-25.3s11.44-25.37,26-25.37,26,9.53,26,25.37-11.44,25.3-26,25.3" transform="translate(-208.42 -257.2)"/><polygon class="cls-1" points="141.7 49.82 109.29 49.82 109.29 0.78 141.71 0.78 141.71 9.95 120.73 9.95 120.73 19.97 139.93 19.97 139.93 29.14 120.73 29.14 120.73 40.51 141.7 40.51 141.7 49.82"/><polygon class="cls-1" points="177.96 49.82 149.53 49.82 149.53 0.78 160.97 0.78 160.97 40.3 177.96 40.3 177.96 49.82"/><path class="cls-1" d="M417,306c0,5.19-1.07,8.81-3.06,11.09a11.47,11.47,0,0,1-8.88,3.62,22.63,22.63,0,0,1-7.32-1.07l0.43-8.46a11,11,0,0,0,3.84.64c2.77,0,3.55-2.13,3.55-5.68V258H417v48Z" transform="translate(-208.42 -257.2)"/><polygon class="cls-1" points="248.89 49.82 216.48 49.82 216.48 0.78 248.89 0.78 248.89 9.95 227.93 9.95 227.93 19.97 247.12 19.97 247.12 29.14 227.93 29.14 227.93 40.51 248.89 40.51 248.89 49.82"/><path class="cls-1" d="M491.78,303.82c-3.48,2.77-8,4.05-13.29,4.05-7.11,0-13.44-3.7-17.41-7.39l5.68-8.39c3.55,3.7,9,6.18,12.79,6.18s6.54-1.77,6.54-5-3.62-4.62-5.76-5.4-5.83-2.06-7.46-2.77a19.24,19.24,0,0,1-5.83-3.55,12.11,12.11,0,0,1-3.84-9.45,13.81,13.81,0,0,1,5.12-10.73c2.77-2.35,7.25-3.91,12.94-3.91s12.22,2.7,15.56,6l-4.9,8c-2.84-2.84-7.25-5-10.95-5s-6.4,1.42-6.4,4.4,2.77,4.12,5,5,5.76,2.13,7.32,2.77a19.63,19.63,0,0,1,6.82,4,12.82,12.82,0,0,1,3.84,9.45,14.85,14.85,0,0,1-5.76,11.73" transform="translate(-208.42 -257.2)"/><path class="cls-1" d="M530.3,303.82c-3.48,2.77-8,4.05-13.29,4.05-7.11,0-13.44-3.7-17.41-7.39l5.68-8.39c3.55,3.7,9,6.18,12.79,6.18s6.54-1.77,6.54-5-3.62-4.62-5.76-5.4-5.83-2.06-7.46-2.77a19.24,19.24,0,0,1-5.83-3.55,12.11,12.11,0,0,1-3.84-9.45,13.81,13.81,0,0,1,5.12-10.73c2.77-2.35,7.25-3.91,12.94-3.91s12.22,2.7,15.56,6l-4.9,8c-2.84-2.84-7.25-5-10.95-5s-6.4,1.42-6.4,4.4,2.77,4.12,5,5,5.76,2.13,7.32,2.77a19.63,19.63,0,0,1,6.82,4,12.82,12.82,0,0,1,3.84,9.45,14.85,14.85,0,0,1-5.76,11.73" transform="translate(-208.42 -257.2)"/><path class="cls-1" d="M565.69,267c-8.17,0-14.36,5.9-14.36,15.28s6.18,15.35,14.36,15.35,14.36-6,14.36-15.35S573.86,267,565.69,267m0,40.87c-14.57,0-26-9.45-26-25.3s11.44-25.37,26-25.37,26,9.53,26,25.37-11.44,25.3-26,25.3" transform="translate(-208.42 -257.2)"/><path class="cls-1" d="M619.62,268.21c-1.42-1-3.05-1.35-5.54-1.35H609.6V280h4.48c2.49,0,4.13-.36,5.54-1.35A6.28,6.28,0,0,0,622,273.4a6.14,6.14,0,0,0-2.35-5.19m8.89,17c-3.27,2.7-7.75,3.7-12.79,3.7h-6V307H598.16V258h17.56c5,0,9.52,1,12.79,3.7s5.12,6.47,5.12,11.73-1.85,9-5.12,11.8" transform="translate(-208.42 -257.2)"/></svg>
